# xmcd CD database file generated by Grip 3.2.0
# 
# Track frame offsets:
#       150
#       28980
#       67309
#       88028
#       117862
#       138290
# 
# Disc length: 2180 seconds
# 
# Revision: 1
# Processed by: cddbd v1.5.2PL0 Copyright (c) Steve Scherf et al.
# Submitted via: Grip 3.2.0
# 
DISCID=55088206
DTITLE=Art Farmer Quintet - From Vienna With Art
DYEAR=1970
DGENRE=Jazz
TTITLE0=Cascavelo
TTITLE1=The Day After
TTITLE2=Con-Fab
TTITLE3=The Gap Sealer
TTITLE4=Cocodrilo
TTITLE5=Whole Tone Stomp
EXTD=YEAR: 1970
EXTT0=
EXTT1=
EXTT2=
EXTT3=
EXTT4=
EXTT5=
PLAYORDER=
